# xmcd
#
# Track frame offsets:
#	150
#	9550
#	22150
#	32530
#	44475
#	56650
#	68440
#	80380
#	91450
#	111195
#
# Disc length: 1614 seconds
# Revision: 0
# Processed by: cddbd v1.5.2PL0 Copyright (c) Steve Scherf et al.
# Submitted via: dBpowerAMP V12.0
#
DISCID=79064c0a
DTITLE=Chuck Berry - Great Hits
DYEAR=1900
DGENRE=Blues
TTITLE0=Roll Over Beethoven
TTITLE1=Johhny B. Goode
TTITLE2=Sweet Little Sixteen
TTITLE3=School Days
TTITLE4=Maybelline
TTITLE5=Rock and Roll Music
TTITLE6=Ramblin' Rose
TTITLE7=Carol
TTITLE8=C.C. Rider
TTITLE9=Memphis, Tennesee
EXTD=
EXTT0=
EXTT1=
EXTT2=
EXTT3=
EXTT4=
EXTT5=
EXTT6=
EXTT7=
EXTT8=
EXTT9=
PLAYORDER=
